<?xml version="1.0" encoding="UTF-8"?>
<svg version="1.1" xmlns="http://www.w3.org/2000/svg" width="1920" height="1920">
<path d="M0 0 C633.6 0 1267.2 0 1920 0 C1920 633.6 1920 1267.2 1920 1920 C1286.4 1920 652.8 1920 0 1920 C0 1286.4 0 652.8 0 0 Z " fill="#FEFEFE" transform="translate(0,0)"/>
<path d="M0 0 C11.08258495 6.40611847 17.98245515 14.78163484 22.078125 26.96875 C22.61055889 30.07075614 22.64902123 33.10436067 22.6875 36.25 C22.71328125 37.50167969 22.7390625 38.75335937 22.765625 40.04296875 C21.95883535 59.9052444 5.60224442 85.21892624 -5.859375 100.7421875 C-8.00186515 103.66108464 -10.00174711 106.66920923 -12 109.6875 C-12.67933594 110.71101562 -13.35867188 111.73453125 -14.05859375 112.7890625 C-14.55488281 113.53929687 -15.05117188 114.28953125 -15.5625 115.0625 C-18.75102616 113.70769481 -20.32822123 112.4121641 -22.2265625 109.52734375 C-22.70367676 108.80957764 -23.18079102 108.09181152 -23.67236328 107.35229492 C-24.1723584 106.5760376 -24.67235352 105.79978027 -25.1875 105 C-25.71456543 104.19216064 -26.24163086 103.38432129 -26.78466797 102.55200195 C-28.39403994 100.06573791 -29.98294303 97.56779731 -31.5625 95.0625 C-32.24119141 93.98645508 -32.24119141 93.98645508 -32.93359375 92.88867188 C-41.5620543 79.05428604 -48.99543888 64.39722291 -54.5625 49.0625 C-54.954375 48.155 -55.34625 47.2475 -55.75 46.3125 C-58.44948176 35.51457294 -56.18165938 25.39305527 -50.8125 15.875 C-39.90080589 -1.22981779 -18.83495184 -8.85386202 0 0 Z " fill="#2E3337" transform="translate(867.5625,546.9375)"/>
<path d="M0 0 C9.60610776 6.74240017 15.37364786 15.99325294 17.6953125 27.578125 C18.92603662 37.47666324 15.73751914 46.31025976 12.6953125 55.578125 C12.0353125 55.578125 11.3753125 55.578125 10.6953125 55.578125 C10.62183594 56.73248047 10.62183594 56.73248047 10.546875 57.91015625 C9.31625734 63.21084423 6.72133167 67.54416861 4.0703125 72.265625 C3.52197754 73.2544165 2.97364258 74.24320801 2.40869141 75.26196289 C-1.27356532 81.85702518 -5.08844488 88.30899569 -9.3046875 94.578125 C-10.15209467 95.87040386 -10.99835561 97.16343476 -11.84375 98.45703125 C-12.74680798 99.83111569 -13.65045194 101.2048152 -14.5546875 102.578125 C-14.97959473 103.22644287 -15.40450195 103.87476074 -15.84228516 104.54272461 C-17.78991501 107.47346226 -19.6554583 110.23854597 -22.3046875 112.578125 C-39.3261892 90.06209792 -64.71613493 56.40193045 -61.61181641 26.52197266 C-59.95686492 16.04762949 -53.95426008 7.04564899 -45.5546875 0.828125 C-30.56492614 -8.89075588 -15.33231227 -9.45925706 0 0 Z " fill="#2E3337" transform="translate(844.3046875,1397.421875)"/>
<path d="M0 0 C1.25562744 0.01244751 1.25562744 0.01244751 2.53662109 0.02514648 C14.32512718 0.34731826 22.38326927 5.13409208 30.6015625 13.43359375 C37.52426126 21.46097849 40.46767059 31.67538801 40.078125 42.20703125 C39.14249729 48.87741154 36.92926922 55.13203186 34.625 61.4375 C34.2640625 62.45714844 33.903125 63.47679687 33.53125 64.52734375 C29.98949613 73.74855293 24.77441463 82.04911854 19.625 90.4375 C19.18929688 91.15083496 18.75359375 91.86416992 18.3046875 92.59912109 C13.71668014 100.09412563 9.04128675 107.48312545 3.90234375 114.6171875 C2.57668175 116.41106369 2.57668175 116.41106369 1.625 118.4375 C-2.21415053 117.15778316 -2.76390671 115.74656537 -4.9375 112.375 C-5.64003906 111.28832031 -6.34257813 110.20164062 -7.06640625 109.08203125 C-7.83670501 107.86767401 -8.60620768 106.6528115 -9.375 105.4375 C-9.97803955 104.49269775 -9.97803955 104.49269775 -10.59326172 103.52880859 C-42.53410926 53.4468608 -42.53410926 53.4468608 -39.375 32.4375 C-36.2060703 20.34810299 -30.30428252 11.99964184 -20.09765625 4.9453125 C-13.42337218 1.24908058 -7.620116 -0.09749695 0 0 Z " fill="#2E3337" transform="translate(1063.375,936.5625)"/>
<path d="M0 0 C9.96664682 5.50867377 16.37269486 13.77579266 19.953125 24.5859375 C23.23285006 42.7228171 15.69038137 58.21230981 7.34375 73.74609375 C6.78429687 74.80441406 6.22484375 75.86273438 5.6484375 76.953125 C-1.34281009 89.6659093 -9.65047601 101.65835665 -17.65625 113.74609375 C-20.80747514 112.40552884 -22.35441784 111.18125872 -24.171875 108.2890625 C-24.614104 107.59562744 -25.05633301 106.90219238 -25.51196289 106.18774414 C-26.20213501 105.0719397 -26.20213501 105.0719397 -26.90625 103.93359375 C-27.39150146 103.1645874 -27.87675293 102.39558105 -28.37670898 101.60327148 C-29.35773276 100.04467948 -30.33426706 98.48325208 -31.30615234 96.91894531 C-32.46097228 95.06037434 -33.62725057 93.21005685 -34.80078125 91.36328125 C-38.71126991 85.135171 -42.37846354 78.78795633 -45.96875 72.37109375 C-46.38970947 71.62158447 -46.81066895 70.8720752 -47.24438477 70.09985352 C-55.49026514 55.21012107 -60.05718909 39.95330355 -57.18359375 22.94921875 C-54.50098973 13.63239043 -47.27183486 6.38587827 -39.65625 0.74609375 C-27.03854631 -6.17072012 -13.00214892 -6.13777912 0 0 Z " fill="#2E3236" transform="translate(808.65625,246.25390625)"/>
<path d="M0 0 C6.8169491 3.43065551 14.65536332 9.1521892 17.36328125 16.6328125 C19.11386068 25.72957346 18.91472284 35.01019554 13.80078125 42.90625 C13.41148437 43.52886719 13.0221875 44.15148437 12.62109375 44.79296875 C7.91528589 51.21124516 0.48196297 55.13196363 -7.29296875 56.41796875 C-15.48417058 56.72408325 -22.03154686 54.46368502 -28.94921875 50.21875 C-35.28775534 43.70414295 -39.19459135 36.73970417 -39.51171875 27.59375 C-39.24889525 17.86928061 -36.33735346 12.13813622 -29.6171875 5.078125 C-21.30031263 -2.3922828 -10.28762109 -4.45315863 0 0 Z " fill="#FBFBFB" transform="translate(800.19921875,255.09375)"/>
<path d="M0 0 C5.75211089 4.20704551 11.33911036 8.82495677 13 16 C13.90582661 26.19581578 13.83827503 35.24933538 7.375 43.6875 C2.25337871 49.26777394 -5.53334742 53.42671808 -13.0859375 54.21875 C-21.17487164 54.5500374 -27.63831549 51.97870962 -34 47 C-40.3426531 41.06961935 -44.12494652 33.68899739 -44.4375 24.9375 C-43.88203371 14.4653268 -39.6595207 8.0860125 -32 1 C-22.63571439 -5.93650786 -9.78434187 -6.28741102 0 0 Z " fill="#FBFBFB" transform="translate(1079,952)"/>
<path d="M0 0 C6.30781159 4.40017099 10.80741633 9.38258141 12.73828125 16.91015625 C13.40342141 24.43401446 13.59819273 31.29316515 9.73828125 37.91015625 C9.20203125 38.87953125 8.66578125 39.84890625 8.11328125 40.84765625 C4.33938664 45.71399404 -0.32020192 50.92965064 -6.26171875 52.91015625 C-24.62862112 54.37137003 -24.62862112 54.37137003 -32.21484375 48.8125 C-39.37044646 42.16215932 -44.24984796 34.95452333 -44.63671875 25.03515625 C-44.26797398 15.7739896 -41.69315206 9.62529302 -35.39453125 2.8203125 C-25.17485218 -6.332477 -11.63143154 -6.51668283 0 0 Z " fill="#FBFBFB" transform="translate(866.26171875,560.08984375)"/>
<path d="M0 0 C6.18068918 4.57468333 11.00250605 10.14793856 12.48046875 17.8359375 C13.72632106 27.51036211 11.95868606 34.7583 6.48046875 42.8359375 C1.52663978 48.82633409 -5.58887697 52.13665513 -13.21875 53.21875 C-20.93006071 53.5487633 -28.32854211 51.90725607 -34.625 47.29296875 C-40.52442279 41.79606521 -44.03214573 34.97437346 -44.79296875 26.953125 C-45.10490743 16.99508253 -42.94150706 10.24776349 -36.14453125 2.8984375 C-26.31102052 -6.18687132 -11.12151982 -6.83660526 0 0 Z " fill="#FBFBFC" transform="translate(838.51953125,1407.1640625)"/>
<path d="M0 0 C2.5 1.4375 2.5 1.4375 4 4 C4.65998698 7.15520092 4.75425225 9.85632266 4 13 C0.77083262 16.30792756 -1.01418679 16.98300322 -5.625 17.0625 C-9.71108416 15.77614017 -11.02126538 14.79257469 -13 11 C-13 7.11417724 -12.53567796 4.83565762 -10.4375 1.5625 C-6.95253431 -0.67145236 -4.02642386 -0.78383251 0 0 Z " fill="#616264" transform="translate(1015,1336)"/>
<path d="M0 0 C3.8425303 0.72047443 5.45767292 1.57152696 8 4.5625 C8.79190864 9.55152441 8.80380719 11.39332591 5.9375 15.5625 C2.24192952 18.07863309 0.38462729 18.35970496 -4 17.5625 C-7.18533648 14.86721529 -7.90100875 13.17844555 -8.5625 9.0625 C-8 5.5625 -8 5.5625 -5.875 2.625 C-3 0.5625 -3 0.5625 0 0 Z " fill="#616264" transform="translate(1007,1383.4375)"/>
<path d="M0 0 C3.48326597 0.85529699 4.97293913 2.60978164 6.97265625 5.484375 C7.6760414 9.23576248 7.23789493 10.95389764 5.53515625 14.359375 C2.27329189 17.06433569 0.2431952 17.15771599 -3.8984375 16.8984375 C-6.02734375 16.484375 -6.02734375 16.484375 -8.58984375 14.921875 C-10.59949099 11.51421228 -10.57412514 9.38019237 -10.02734375 5.484375 C-7.65043921 0.82960362 -5.28392032 -0.35555352 0 0 Z " fill="#626365" transform="translate(992.02734375,1291.515625)"/>
<path d="M0 0 C3.8425303 0.72047443 5.45767292 1.57152696 8 4.5625 C8.79190864 9.55152441 8.80380719 11.39332591 5.9375 15.5625 C2.24192952 18.07863309 0.38462729 18.35970496 -4 17.5625 C-7.18533648 14.86721529 -7.90100875 13.17844555 -8.5625 9.0625 C-8 5.5625 -8 5.5625 -5.875 2.625 C-3 0.5625 -3 0.5625 0 0 Z " fill="#626365" transform="translate(936,1210.4375)"/>
<path d="M0 0 C2.4375 1.6875 2.4375 1.6875 4 4 C4.66974422 7.93474728 4.35110528 9.47334208 2.125 12.8125 C-0.35877318 15.36932533 -1.31020455 15.89269849 -4.8125 16.4375 C-8 16 -8 16 -10.875 13.375 C-13 10 -13 10 -13.6875 6.9375 C-12.89489725 3.55092462 -11.59422655 1.91021922 -8.78515625 -0.1484375 C-5.57873995 -1.67797525 -3.28254395 -1.03339347 0 0 Z " fill="#626365" transform="translate(723,628)"/>
<path d="M0 0 C6.93570186 0.01042963 6.93570186 0.01042963 10.34765625 2.62890625 C12.08360254 6.51411938 11.91194393 8.51650492 10.66015625 12.56640625 C8.07211644 15.45022204 6.46486076 16.41552415 2.66015625 17.12890625 C-1.47591929 16.35339209 -2.88983928 14.95317714 -5.33984375 11.56640625 C-5.85636649 7.88618176 -5.9504444 5.6549531 -4.1171875 2.38671875 C-2.33984375 0.56640625 -2.33984375 0.56640625 0 0 Z " fill="#626365" transform="translate(981.33984375,1427.43359375)"/>
<path d="M0 0 C2.875 1.5 2.875 1.5 5 4 C5.8316352 8.26105872 5.44396979 11.33404531 3 15 C2.34 15 1.68 15 1 15 C1 15.66 1 16.32 1 17 C-3.25018379 17.41668469 -5.35342568 17.44022082 -8.9375 15 C-11.80380719 10.83082591 -11.79190864 8.98902441 -11 4 C-7.72794548 0.1505241 -4.96702569 -0.82783761 0 0 Z " fill="#626365" transform="translate(1150,1029)"/>
<path d="M0 0 C2.875 1.4375 2.875 1.4375 5 4 C5.41409388 7.04542461 5.29354833 9.94709737 5 13 C4.34 13 3.68 13 3 13 C3 13.66 3 14.32 3 15 C2.34 15 1.68 15 1 15 C1 15.66 1 16.32 1 17 C-2.40764114 17.19659468 -5.17210892 17.32679911 -8.375 16.0625 C-11.00589346 12.72328907 -11.42497387 9.18379443 -11 5 C-7.95698592 0.48158515 -5.40775723 -1.01395448 0 0 Z " fill="#626364" transform="translate(1214,830)"/>
<path d="M0 0 C2.89011591 2.70163009 4.67909338 4.68428286 5.625 8.5625 C4.65546926 12.3436699 3.16407264 13.73994811 0 16 C-3.1268233 16.63522155 -5.87320965 16.63258764 -9 16 C-11.0625 14.5 -11.0625 14.5 -12 12 C-12.49711356 8.41934148 -12.79596482 5.17499568 -10.6875 2.0625 C-7.18795719 -0.14091585 -4.03277987 -0.56458918 0 0 Z " fill="#626364" transform="translate(1178,798)"/>
<path d="M0 0 C3.50035742 0.7971111 4.97632236 2.57948879 6.97265625 5.44921875 C7.59765625 8.44921875 7.59765625 8.44921875 6.97265625 11.44921875 C4.96965848 14.32852804 3.46544212 16.05606921 0 16.96875 C-2.08984375 17.13671875 -2.08984375 17.13671875 -6.02734375 16.44921875 C-8.88416409 13.4495574 -9.87503679 11.40113724 -10.52734375 7.32421875 C-10.02734375 4.44921875 -10.02734375 4.44921875 -8.52734375 2.07421875 C-5.65401231 0.20655331 -3.42244722 -0.18551583 0 0 Z " fill="#626364" transform="translate(690.02734375,588.55078125)"/>
<path d="M0 0 C3.34729173 2.42144508 4.76049116 3.87430846 5.625 7.9375 C4.75697586 12.19081827 3.22341676 14.11949992 0 17 C-3.5625 17.6875 -3.5625 17.6875 -7 17 C-9.57687323 14.88564247 -10.74473348 13.32896485 -11.37890625 10.02734375 C-11.57547799 6.63489591 -11.24074916 4.38519866 -9.4375 1.5 C-6.00863886 -0.61006839 -3.95779649 -0.62491523 0 0 Z " fill="#616264" transform="translate(1189,999)"/>
<path d="M0 0 C4.18595701 0.93970464 6.18309325 2.53386403 9.0625 5.6875 C9.84178197 9.42805344 9.32699889 11.13445688 7.6875 14.5625 C4.20796391 17.37926731 1.76513812 17.24734566 -2.59765625 17.25390625 C-4.9375 16.6875 -4.9375 16.6875 -6.71484375 14.83203125 C-8.43101478 11.82187822 -8.4849196 10.10887248 -7.9375 6.6875 C-5.62159957 3.0093052 -4.3052543 1.00761271 0 0 Z " fill="#5F6062" transform="translate(789.9375,1572.3125)"/>
<path d="M0 0 C2.5 1 2.5 1 4 3 C4.47887704 7.24148232 4.32629193 9.95586583 3.0625 14 C0.65793577 16.33169864 -0.17948368 16.42137398 -3.4375 16.625 C-6.86612386 16.41838912 -7.79686278 16.16350069 -10.5625 13.9375 C-12.35608261 10.27235293 -12.58674844 8.0338955 -12 4 C-9.05798919 -0.78076756 -5.13495275 -0.83127309 0 0 Z " fill="#626365" transform="translate(724,454)"/>
<path d="M0 0 C4.10828244 1.3445288 5.38090401 2.34086338 7.4375 6.125 C8 9.6875 8 9.6875 7.4375 13.125 C4.71898463 16.33779089 3.03026322 17.03140581 -1.125 17.6875 C-4.5625 17.125 -4.5625 17.125 -7 15.0625 C-8.97393691 11.35149861 -9.22944827 9.27490033 -8.5625 5.125 C-5.91434712 1.27314127 -4.72054682 0.16563322 0 0 Z " fill="#5D5E60" transform="translate(826.5625,350.875)"/>
<path d="M0 0 C3.50035742 0.7971111 4.97632236 2.57948879 6.97265625 5.44921875 C7.66015625 8.44921875 7.66015625 8.44921875 6.97265625 11.44921875 C4.05366033 14.64621428 2.13790073 16.23947474 -2.15234375 17.01171875 C-5.65959243 16.32551792 -6.83145203 15.21441572 -9.02734375 12.44921875 C-10.44776196 9.60838234 -10.34186647 7.59444597 -10.02734375 4.44921875 C-7.48032903 0.41644544 -4.72167781 -0.25594141 0 0 Z " fill="#606162" transform="translate(960.02734375,1254.55078125)"/>
<path d="M0 0 C2.6314428 1.68682231 3.72634452 2.84112855 4.44921875 5.90234375 C4.63631812 8.13506285 4.58027094 9.83395047 4 12 C1.4375 14.5625 1.4375 14.5625 -2 16 C-5.77279648 16 -7.9732826 15.8279979 -10.9375 13.4375 C-12.47800633 9.90339724 -12.81258204 6.78431066 -12 3 C-8.37297107 -1.50630867 -5.38985745 -1.56795853 0 0 Z " fill="#EE3C44" transform="translate(1068,1082)"/>
<path d="M0 0 C4.18728708 0.66115059 5.85899843 1.2855284 8.5625 4.5625 C9.21716318 7.36491781 9.17363838 9.75472271 8.5625 12.5625 C6.4395471 15.87430653 4.86823944 16.46243982 1.125 17.6875 C-2.4375 17.5625 -2.4375 17.5625 -5.375 15 C-7.00772111 12.66445193 -7.4700028 11.38554034 -8 8.5 C-7.01114212 3.33596439 -5.29204813 0.86597151 0 0 Z " fill="#616263" transform="translate(678.4375,540.4375)"/>
<path d="M0 0 C2.4375 1.0625 2.4375 1.0625 4 3 C4.52431698 6.25076528 4.78050072 7.93161929 4 11 C1.4375 14.0625 1.4375 14.0625 -2 16 C-5.81588203 16.06467597 -7.94350686 15.8520106 -10.9375 13.4375 C-12.47800633 9.90339724 -12.81258204 6.78431066 -12 3 C-8.35400434 -1.52987339 -5.41752528 -1.47750689 0 0 Z " fill="#606163" transform="translate(924,147)"/>
<path d="M0 0 C3.9375 0.5 3.9375 0.5 5.625 1.75390625 C8.02825546 4.95109432 8.14186446 8.59593419 7.9375 12.5 C6.5625 15.0625 6.5625 15.0625 3.9375 16.5 C0.8303025 17.03186263 -1.95893659 17.07016222 -5.0625 16.5 C-7.125 14.9375 -7.125 14.9375 -8.0625 12.5 C-8.57743817 8.4540572 -8.42385897 6.20766131 -6.5625 2.5625 C-3.924344 0.3860213 -3.25717152 0.13796491 0 0 Z " fill="#606162" transform="translate(945.0625,1163.5)"/>
<path d="M0 0 C3.38677089 2.45000447 4.78698584 3.86392446 5.5625 8 C4.83450185 11.88265681 4.06018871 13.46228253 1 16 C-2.12334056 16.64834687 -4.87329529 16.61586608 -8 16 C-10.0625 14.5625 -10.0625 14.5625 -11 12 C-11.43484537 8.91148285 -11.51370399 6.08222392 -11 3 C-8.12305622 -0.79756579 -4.48944315 -0.63009728 0 0 Z " fill="#606163" transform="translate(981,1128)"/>
<path d="M0 0 C4.93613239 1.49015317 4.93613239 1.49015317 6.3125 4 C6.95253318 8.96025717 7.10039129 10.88768289 4.1875 15 C1.3125 17 1.3125 17 -1.6875 17.625 C-5.79453441 16.76936783 -7.24151113 15.38121991 -9.6875 12 C-10.375 8.5 -10.375 8.5 -9.6875 5 C-6.50913779 1.27899059 -4.94673901 0 0 0 Z " fill="#606162" transform="translate(924.6875,243)"/>
<path d="M0 0 C2.9375 1.5625 2.9375 1.5625 5 4 C5.5625 7.5 5.5625 7.5 5 11 C2.38962477 14.30647529 0.35210142 15.78967311 -3.8125 16.4375 C-7 16 -7 16 -9.9375 13.4375 C-11.94229022 10.70839847 -12.00125663 9.92585881 -12.0625 6.3125 C-11 3 -11 3 -9.375 1.0625 C-6.00997209 -0.44290722 -3.64962568 -0.44819965 0 0 Z " fill="#606062" transform="translate(917,98)"/>
<path d="M0 0 C4.4297642 0.79102932 5.89210172 1.98974785 8.5 5.625 C9.04667869 8.97340698 8.84038506 10.83785954 7.5 13.9375 C5.03083294 16.0208597 2.77988305 16.60269392 -0.42578125 16.8515625 C-4.39832327 16.41765019 -5.93615972 14.63751233 -8.5 11.625 C-9.1875 8.625 -9.1875 8.625 -8.5 5.625 C-5.89210172 1.98974785 -4.4297642 0.79102932 0 0 Z " fill="#606163" transform="translate(863.5,1509.375)"/>
<path d="M0 0 C2.5 0.9375 2.5 0.9375 4 3 C4.62159992 6.12575961 4.64276406 8.87639222 4 12 C1.30969326 15.34250232 -0.34062756 15.89588856 -4.5625 16.5625 C-8 16 -8 16 -10.4375 13.9375 C-12.38925759 10.26819573 -12.59677999 8.10286241 -12 4 C-9.05375209 -0.78765285 -5.13873334 -0.82135492 0 0 Z " fill="#5F6062" transform="translate(1110,1057)"/>
<path d="M0 0 C2.5 1.625 2.5 1.625 4 4 C4.07534495 8.21931729 3.66424168 10.23807572 0.875 13.4375 C-2.75917665 15.41259601 -4.91874064 15.59363772 -9 15 C-11.4375 13.5 -11.4375 13.5 -13 11 C-13.63282293 7.4259887 -13.7960262 4.1750863 -11.6875 1.0625 C-7.62684129 -1.49421104 -4.53460314 -1.03420773 0 0 Z " fill="#606062" transform="translate(1137,774)"/>
<path d="M0 0 C2.9375 2.0625 2.9375 2.0625 5 5 C5.6198676 8.92582814 5.58925458 11.00082919 3.5625 14.4375 C-0.22626518 16.74772267 -3.67689344 16.78601937 -8 16 C-10.4395583 14.22577578 -10.8366175 13.02218795 -11.3046875 10.09375 C-11.5294052 6.55114162 -11.34460456 4.55136729 -9.4375 1.5 C-6.00863886 -0.61006839 -3.95779649 -0.62491523 0 0 Z " fill="#606163" transform="translate(696,494)"/>
<path d="M0 0 C3.4375 1.5 3.4375 1.5 6 4 C6.81559847 6.84294325 6.76522655 9.14938506 6 12 C3.87004224 14.6624472 2.36099738 15.74580594 -1.0078125 16.375 C-4.1614128 16.56119042 -6.40268195 16.42932235 -9 14.5625 C-10.47132158 10.79223846 -10.74902051 6.9874327 -10 3 C-7.16228729 -0.7723896 -4.55888617 -0.5408848 0 0 Z " fill="#5F6062" transform="translate(804,1806)"/>
<path d="M0 0 C0.86625 0.0103125 1.7325 0.020625 2.625 0.03125 C3.924375 0.01578125 3.924375 0.01578125 5.25 0 C7.625 0.53125 7.625 0.53125 9.40625 2.34765625 C11.2321479 5.61905666 11.14150802 7.85113033 10.625 11.53125 C8.17901113 14.91246991 6.73203441 16.30061783 2.625 17.15625 C-1.48203441 16.30061783 -2.92901113 14.91246991 -5.375 11.53125 C-5.89150802 7.85113033 -5.9821479 5.61905666 -4.15625 2.34765625 C-2.375 0.53125 -2.375 0.53125 0 0 Z " fill="#5F6062" transform="translate(817.375,1761.46875)"/>
<path d="M0 0 C5.88903061 0.82653061 5.88903061 0.82653061 8.5625 3.5 C9.48675657 7.78076727 9.28210728 11.27067089 7.0625 15.0625 C3.52068758 17.09904214 0.55130501 17.29285673 -3.4375 16.5 C-5.9375 14.9375 -5.9375 14.9375 -7.4375 12.5 C-8.03427999 8.39713759 -7.82675759 6.23180427 -5.875 2.5625 C-3.4375 0.5 -3.4375 0.5 0 0 Z " fill="#5F6062" transform="translate(1086.4375,752.5)"/>
<path d="M0 0 C2.5 1.5625 2.5 1.5625 4 4 C4.72125695 8.40768137 4.52001338 10.25937488 1.9375 13.9375 C-1.74062512 16.52001338 -3.59231863 16.72125695 -8 16 C-10.4375 14.5 -10.4375 14.5 -12 12 C-12.79841448 7.98323437 -12.61897146 5.0316191 -10.5 1.5 C-6.9683809 -0.61897146 -4.01676563 -0.79841448 0 0 Z " fill="#606162" transform="translate(758,418)"/>
<path d="M0 0 C2.16796875 0.37109375 2.16796875 0.37109375 4.79296875 1.80859375 C6.9002464 5.73579301 6.39458424 9.16555493 5.16796875 13.37109375 C2.85665411 16.30468541 1.3758986 16.34138949 -2.33203125 16.87109375 C-5.83203125 16.37109375 -5.83203125 16.37109375 -8.26953125 14.30859375 C-10.21014249 10.66024462 -10.35155106 8.45303508 -9.83203125 4.37109375 C-7.99265926 -0.41127342 -4.60704985 -0.2480141 0 0 Z " fill="#5C5D5F" transform="translate(947.83203125,712.62890625)"/>
<path d="M0 0 C2.5 0.9375 2.5 0.9375 4 3 C4.62146539 6.12508309 4.64812539 8.8777264 4 12 C1.46228253 15.06018871 -0.11734319 15.83450185 -4 16.5625 C-8.13607554 15.78698584 -9.54999553 14.38677089 -12 11 C-12.62491523 7.04220351 -12.61006839 4.99136114 -10.5 1.5625 C-6.95824756 -0.65109528 -4.0669949 -0.65005246 0 0 Z " fill="#5F5F61" transform="translate(866,319)"/>
<path d="M0 0 C3 2.0625 3 2.0625 5 5 C5 8.52133145 4.69441423 10.84264294 2.875 13.875 C0.00580674 15.59651596 -2.69985784 15.76427556 -6 16 C-9 15 -9 15 -10.75 12.875 C-12.39415792 9.09343679 -12.0948787 6.94156332 -11 3 C-7.92151183 -0.67050512 -4.56638127 -0.64089562 0 0 Z " fill="#5E5F61" transform="translate(931,195)"/>
<path d="M0 0 C2.1640625 0.34375 2.1640625 0.34375 4.7265625 1.90625 C6.75331708 5.34292081 6.7839301 7.41792186 6.1640625 11.34375 C3.71807363 14.72496991 2.27109691 16.11311783 -1.8359375 16.96875 C-5.97776631 16.105869 -7.39820221 14.78525865 -9.8359375 11.34375 C-10.44736534 8.37890181 -10.23542166 6.43975226 -9.8359375 3.34375 C-7.10494137 -0.39116371 -4.34008585 -0.16964505 0 0 Z " fill="#5F6061" transform="translate(814.8359375,1713.65625)"/>
<path d="M0 0 C2.9375 1.5 2.9375 1.5 5 4 C5.9352036 8.00332769 5.61385602 10.97690664 3.5 14.5 C-0.02309336 16.61385602 -2.99667231 16.9352036 -7 16 C-10.2883921 13.28707652 -10.90851499 11.65183071 -11.5 7.4375 C-11 4 -11 4 -9.4375 1.5625 C-6.04295632 -0.61348954 -3.9634351 -0.55627159 0 0 Z " fill="#5E5F61" transform="translate(797,1668)"/>
<path d="M0 0 C2.99993115 2.54994148 3.85480459 4.12882756 4.5 8 C3.85480459 11.87117244 2.99993115 13.45005852 0 16 C-3.99893269 16.94237143 -6.98105682 16.61136591 -10.5 14.5 C-12.62153384 10.96411027 -12.791013 8.02098277 -12 4 C-9.20664469 -0.65559218 -5.02394308 -1.18392101 0 0 Z " fill="#5D5E60" transform="translate(1245,920)"/>
<path d="M0 0 C2.375 1 2.375 1 4 3 C4.96528001 5.73594703 5.31482666 8.11034098 5 11 C3.0224611 14.06199572 1.62468667 15.64351535 -2.01171875 16.44140625 C-5.19859651 16.62401847 -7.41818231 16.43636327 -10 14.5 C-11.42949186 10.92627035 -11.68375401 7.79172676 -11 4 C-8.14969659 -0.56048545 -5.12186168 -0.64023271 0 0 Z " fill="#5F6062" transform="translate(1044,737)"/>
<path d="M0 0 C2.375 0.9375 2.375 0.9375 4 3 C4.9449995 6.06110267 5.32285176 8.80607371 5 12 C2.89453661 14.78464513 1.42445143 15.73723712 -2.01171875 16.37109375 C-5.20221768 16.56570829 -7.40931587 16.4430131 -10 14.5 C-11.42949186 10.92627035 -11.68375401 7.79172676 -11 4 C-8.14969659 -0.56048545 -5.12186168 -0.64023271 0 0 Z " fill="#EF4049" transform="translate(854,689)"/>
<path d="M0 0 C3.33592062 0.57113038 4.88268788 1.75375437 7.0078125 4.34375 C7.6410677 8.28400458 7.65711513 10.35681001 5.4453125 13.71875 C2.17941822 15.89601285 -0.07202616 16.34375 -3.9921875 16.34375 C-6.9296875 14.96875 -6.9296875 14.96875 -8.9921875 12.34375 C-9.57543882 9.26085015 -9.67043158 6.41280448 -8.9921875 3.34375 C-6.50992007 -0.02611609 -4.13783513 -0.18322517 0 0 Z " fill="#EF4149" transform="translate(790.9921875,384.65625)"/>
<path d="M0 0 C3.32037714 0.62660814 4.88167815 1.78768001 7.0078125 4.37890625 C7.6328125 7.81640625 7.6328125 7.81640625 7.0078125 11.37890625 C4.39213129 15.1042704 2.9474192 16.21406297 -1.5546875 17.00390625 C-4.9921875 16.37890625 -4.9921875 16.37890625 -7.4296875 14.31640625 C-9.37029874 10.66805712 -9.51170731 8.46084758 -8.9921875 4.37890625 C-7.19438651 -0.00323366 -4.56970208 -0.26136672 0 0 Z " fill="#5E5F61" transform="translate(781.9921875,1620.62109375)"/>
<path d="M0 0 C2 1.0625 2 1.0625 3 3 C3.39296656 6.09461163 3.61866635 8.04348869 3 11 C0.87004224 13.6624472 -0.63900262 14.74580594 -4.0078125 15.375 C-7.19905373 15.56341277 -9.40845018 15.44366236 -12 13.5 C-13.4323298 9.9191755 -13.80665943 6.79285057 -13 3 C-9.11569785 -1.97676213 -5.6490805 -1.36671302 0 0 Z " fill="#5C5D5F" transform="translate(912,1488)"/>
<path d="M0 0 C3.38677089 2.45000447 4.78698584 3.86392446 5.5625 8 C4.83450185 11.88265681 4.06018871 13.46228253 1 16 C-2.1222736 16.64812539 -4.87491691 16.62146539 -8 16 C-10.4395583 14.22577578 -10.8366175 13.02218795 -11.3046875 10.09375 C-11.5294052 6.55114162 -11.34460456 4.55136729 -9.4375 1.5 C-6.00863886 -0.61006839 -3.95779649 -0.62491523 0 0 Z " fill="#5E5F61" transform="translate(952,1461)"/>
<path d="M0 0 C3.38121991 2.44598887 4.76936783 3.89296559 5.625 8 C4.76936783 12.10703441 3.38121991 13.55401113 0 16 C-3.92582814 16.6198676 -6.00082919 16.58925458 -9.4375 14.5625 C-11.7451962 10.77787823 -11.79344759 7.31897247 -11 3 C-8.12305622 -0.79756579 -4.48944315 -0.63009728 0 0 Z " fill="#5E5F60" transform="translate(1223,964)"/>
<path d="M0 0 C2.9375 1.5 2.9375 1.5 5 4 C5.71221426 6.82569562 5.71221426 9.17430438 5 12 C2.29649843 15.2769716 0.62478708 15.90134941 -3.5625 16.5625 C-7 16 -7 16 -9.4375 13.9375 C-11.38925759 10.26819573 -11.59677999 8.10286241 -11 4 C-8.10445004 -0.51705794 -5.12679803 -0.7195506 0 0 Z " fill="#5D5E60" transform="translate(762,655)"/>
<path d="M0 0 C2.9375 1.5625 2.9375 1.5625 5 4 C5.625 7.4375 5.625 7.4375 5 11 C2.38431879 14.72536415 0.9396067 15.83515672 -3.5625 16.625 C-7 16 -7 16 -9.4375 13.9375 C-11.38925759 10.26819573 -11.59677999 8.10286241 -11 4 C-8.10445004 -0.51705794 -5.12679803 -0.7195506 0 0 Z " fill="#5D5E5F" transform="translate(1240,872)"/>
<path d="M0 0 C2.9375 1.5625 2.9375 1.5625 5 4 C5.67496305 8.12477419 5.40126114 10.24562906 3.4375 13.9375 C1 16 1 16 -2.4375 16.625 C-6.9396067 15.83515672 -8.38431879 14.72536415 -11 11 C-11.63007693 7.00951279 -11.63021887 4.98314143 -9.4375 1.5625 C-6.04295632 -0.61348954 -3.9634351 -0.55627159 0 0 Z " fill="#5D5E60" transform="translate(901,285)"/>
<path d="M0 0 C2.8125 1.5 2.8125 1.5 5 4 C5.94951803 7.99452412 5.60888332 10.98519447 3.5 14.5 C-0.01894318 16.61136591 -3.00106731 16.94237143 -7 16 C-10.02791041 13.42627616 -10.86162709 11.84753406 -11.5 7.9375 C-10.88967138 4.35181933 -9.80986461 3.23136307 -7 1 C-4.39120333 -0.30439833 -2.90289827 -0.33754631 0 0 Z " fill="#5D5E60" transform="translate(901,701)"/>
<path d="M0 0 C3 2 3 2 3.6875 3.98828125 C4.27758944 8.37707148 4.49327597 10.26755993 1.9375 14.0625 C-1.48619305 16.32068052 -2.98535447 16.76876191 -7 16 C-10.30401987 13.32106497 -11.85036733 11.3766206 -12.3125 7.125 C-12 4 -12 4 -10.5 1.625 C-6.78629977 -0.78890515 -4.39541369 -0.41861083 0 0 Z " fill="#F0434C" transform="translate(826,1537)"/>
<path d="M0 0 C3.71317907 1.14770989 5.2692056 1.85342428 7.4375 5.0625 C8.06819292 8.76782093 7.6806765 10.57614699 6 13.9375 C2.72805778 16.65081794 0.65450646 16.73621915 -3.5 16.4765625 C-5.5625 16.0625 -5.5625 16.0625 -7.625 14.5 C-8.9469219 11.06300305 -9.07552047 8.71777083 -8.5625 5.0625 C-5.90798953 1.20139386 -4.7398766 0.08315573 0 0 Z " fill="#5D5E5F" transform="translate(1020.5625,1102.9375)"/>
<path d="M0 0 C2.69990662 1.79993774 4.5418865 3.083773 6 6 C6.375 8.875 6.375 8.875 6 12 C3.25408425 15.16196359 1.59199258 15.91691332 -2.5625 16.5 C-6 16 -6 16 -8.4375 14.5 C-10.63559176 10.98305319 -10.81157964 8.04133533 -10 4 C-7.30203057 -0.15072221 -4.80768487 -0.78492814 0 0 Z " fill="#5D5E60" transform="translate(996,724)"/>
<path d="M0 0 C2.66589042 0.54323805 3.75768995 0.96351964 5.875 2.75 C7.2001184 5.8143363 7.34822484 7.7499261 6.875 11.0625 C5.375 13.9375 5.375 13.9375 2.875 16.0625 C0.0520404 16.77980941 -2.3020404 16.77980941 -5.125 16.0625 C-8.11597304 13.52017292 -8.96702557 11.9050303 -9.6875 8.0625 C-8.65672577 2.56503742 -5.64140818 -0.43715709 0 0 Z " fill="#5B5C5E" transform="translate(805.125,673.9375)"/>
<path d="M0 0 C6.0546875 -0.1953125 6.0546875 -0.1953125 8 0 C10 2 10 2 10.5625 5.3125 C10 9 10 9 8.43359375 10.5703125 C6.6660222 11.82011057 4.89332035 12.95191195 3 14 C2.67 13.34 2.34 12.68 2 12 C2.66 12 3.32 12 4 12 C4.25030977 9.58380177 4.25030977 9.58380177 4 7 C3.01 6.34 2.02 5.68 1 5 C1 4.34 1 3.68 1 3 C0.34 2.67 -0.32 2.34 -1 2 C-0.67 1.34 -0.34 0.68 0 0 Z M-4 3 C-3.01 3.33 -2.02 3.66 -1 4 C-1.99 4.33 -2.98 4.66 -4 5 C-4 4.34 -4 3.68 -4 3 Z " fill="#EE373F" transform="translate(787,386)"/>
<path d="M0 0 C0 0.33 0 0.66 0 1 C-1.98 1 -3.96 1 -6 1 C-5.67 2.32 -5.34 3.64 -5 5 C-5.99 5 -6.98 5 -8 5 C-8 5.66 -8 6.32 -8 7 C-8.99 6.67 -9.98 6.34 -11 6 C-10.6875 3.625 -10.6875 3.625 -10 1 C-6.1496895 -1.56687367 -4.41430237 -0.83288724 0 0 Z " fill="#6F7071" transform="translate(830,352)"/>
<path d="M0 0 C1.32 0.33 2.64 0.66 4 1 C3.8125 3.375 3.8125 3.375 3 6 C0.4375 7.3125 0.4375 7.3125 -2 8 C-3.125 4.25 -3.125 4.25 -2 2 C-1.34 2 -0.68 2 0 2 C0 1.34 0 0.68 0 0 Z " fill="#ED363F" transform="translate(821,1544)"/>
<path d="M0 0 C2.97 0.495 2.97 0.495 6 1 C6.33 3.97 6.66 6.94 7 10 C5.68 9.67 4.36 9.34 3 9 C2 6 1 3 0 0 Z " fill="#EA3A3F" transform="translate(823,1538)"/>
<path d="M0 0 C0 0.99 0 1.98 0 3 C-1.64453125 4.421875 -1.64453125 4.421875 -3.8125 5.75 C-4.52019531 6.19859375 -5.22789062 6.6471875 -5.95703125 7.109375 C-8 8 -8 8 -11 7 C-11.33 6.34 -11.66 5.68 -12 5 C-11.67 4.34 -11.34 3.68 -11 3 C-8.75 2.40234375 -8.75 2.40234375 -6 1.9375 C-2.69940294 1.5954649 -2.69940294 1.5954649 0 0 Z " fill="#F9EBEA" transform="translate(857,702)"/>
<path d="M0 0 C3.65813817 0.28139524 6.31896306 0.56343786 9.4375 2.5625 C11.73566228 6.14763316 11.28061483 8.79077755 11 13 C10.67 13 10.34 13 10 13 C9.67 11.02 9.34 9.04 9 7 C8.01 7.495 8.01 7.495 7 8 C7 6.68 7 5.36 7 4 C6.01 3.67 5.02 3.34 4 3 C4 2.34 4 1.68 4 1 C2.68 0.67 1.36 0.34 0 0 Z " fill="#EF595F" transform="translate(1061,1081)"/>
<path d="M0 0 C0 0.33 0 0.66 0 1 C-2.31 1.33 -4.62 1.66 -7 2 C-8.32 5.3 -9.64 8.6 -11 12 C-11.66 11.67 -12.32 11.34 -13 11 C-12.71860476 7.34186183 -12.43656214 4.68103694 -10.4375 1.5625 C-6.85236684 -0.73566228 -4.20922245 -0.28061483 0 0 Z " fill="#78787A" transform="translate(1015,1336)"/>
<path d="M0 0 C1.98 0 3.96 0 6 0 C5 3 5 3 3 5 C3 5.66 3 6.32 3 7 C1.68 7.33 0.36 7.66 -1 8 C-2 6 -2 6 -1.0625 2.875 C-0.5365625 1.451875 -0.5365625 1.451875 0 0 Z " fill="#EE363E" transform="translate(848,690)"/>
<path d="M0 0 C0 0.33 0 0.66 0 1 C-2.64 1.33 -5.28 1.66 -8 2 C-9.83691257 5.78187881 -10.15837626 7.94568308 -9 12 C-9.99 12.495 -9.99 12.495 -11 13 C-12.52846661 9.94306678 -12.23242445 7.37015453 -12 4 C-9.88183187 -1.50723713 -5.04964958 -0.38110563 0 0 Z " fill="#6E6F70" transform="translate(950,713)"/>
<path d="M0 0 C0.78375 0.04125 1.5675 0.0825 2.375 0.125 C1.385 0.62 1.385 0.62 0.375 1.125 C-0.28055119 3.65233235 -0.28055119 3.65233235 -0.625 6.125 C-1.615 6.455 -2.605 6.785 -3.625 7.125 C-4.25 4.75 -4.25 4.75 -4.625 2.125 C-2.625 0.125 -2.625 0.125 0 0 Z " fill="#57595B" transform="translate(1040.625,737.875)"/>
<path d="M0 0 C0.66 0.33 1.32 0.66 2 1 C-1.59054233 4.88975419 -5.73898882 7.89732195 -10 11 C-8.55218207 7.55571735 -6.72305391 5.63869038 -3.875 3.25 C-3.15054687 2.63640625 -2.42609375 2.0228125 -1.6796875 1.390625 C-0.84824219 0.70226562 -0.84824219 0.70226562 0 0 Z " fill="#E1E1E2" transform="translate(1050,951)"/>
<path d="M0 0 C2 2 2 2 2.25 5 C2 8 2 8 0 10 C-0.33 9.34 -0.66 8.68 -1 8 C-1.66 7.67 -2.32 7.34 -3 7 C-2.67 5.68 -2.34 4.36 -2 3 C-1.34 3 -0.68 3 0 3 C0 2.01 0 1.02 0 0 Z " fill="#6F7071" transform="translate(1247,923)"/>
<path d="M0 0 C1.32 0 2.64 0 4 0 C3.49396008 2.16874252 3.00016187 3.99967627 2 6 C1.01 5.67 0.02 5.34 -1 5 C-0.67 3.35 -0.34 1.7 0 0 Z " fill="#393D40" transform="translate(1063,1049)"/>
<path d="M0 0 C0.66 0.33 1.32 0.66 2 1 C2 1.99 2 2.98 2 4 C1.01 4.33 0.02 4.66 -1 5 C-1.33 6.98 -1.66 8.96 -2 11 C-2.33 11 -2.66 11 -3 11 C-3.36923077 4.6 -3.36923077 4.6 -1.5 1.5625 C-1.005 1.046875 -0.51 0.53125 0 0 Z " fill="#747575" transform="translate(1002,1385)"/>
<path d="M0 0 C0.33 0 0.66 0 1 0 C1.144375 1.11375 1.28875 2.2275 1.4375 3.375 C1.78372035 6.82142047 1.78372035 6.82142047 3 9 C1.68 9.33 0.36 9.66 -1 10 C-1.33 8.35 -1.66 6.7 -2 5 C-1.34 5 -0.68 5 0 5 C0 3.35 0 1.7 0 0 Z " fill="#F8D9DA" transform="translate(842,694)"/>
<path d="M0 0 C2.05078125 0.03255208 4.1015625 0.06510417 6.15234375 0.09765625 C6.15234375 0.42765625 6.15234375 0.75765625 6.15234375 1.09765625 C4.17234375 1.09765625 2.19234375 1.09765625 0.15234375 1.09765625 C-0.17765625 2.08765625 -0.50765625 3.07765625 -0.84765625 4.09765625 C-2.91015625 4.78515625 -2.91015625 4.78515625 -4.84765625 5.09765625 C-2.44354091 0.12915121 -2.44354091 0.12915121 0 0 Z " fill="#EE5560" transform="translate(786.84765625,384.90234375)"/>
<path d="M0 0 C0 3 0 3 -2 6 C-4.31 5.34 -6.62 4.68 -9 4 C-9 3.67 -9 3.34 -9 3 C-6.03 2.01 -3.06 1.02 0 0 Z " fill="#FAE0DF" transform="translate(796,398)"/>
<path d="M0 0 C0.66 0 1.32 0 2 0 C1.71125 0.53625 1.4225 1.0725 1.125 1.625 C-0.16711808 4.35280484 -1.08558592 7.12612718 -2 10 C-2.33 10 -2.66 10 -3 10 C-3.2295711 6.63295715 -3.33943529 4.58629732 -1.625 1.625 C-1.08875 1.08875 -0.5525 0.5525 0 0 Z " fill="#737476" transform="translate(785,1575)"/>
<path d="M0 0 C1.32 0.33 2.64 0.66 4 1 C4 2.32 4 3.64 4 5 C2.68 4.67 1.36 4.34 0 4 C0 2.68 0 1.36 0 0 Z " fill="#EE373F" transform="translate(815,1541)"/>
<path d="M0 0 C-0.66 1.32 -1.32 2.64 -2 4 C-2.66 4 -3.32 4 -4 4 C-4 6.31 -4 8.62 -4 11 C-4.33 11 -4.66 11 -5 11 C-5.36717663 3.5340751 -5.36717663 3.5340751 -3.625 1 C-2 0 -2 0 0 0 Z " fill="#79797A" transform="translate(904,1488)"/>
<path d="M0 0 C1.98 0.495 1.98 0.495 4 1 C3.1875 2.9375 3.1875 2.9375 2 5 C1.01 5.33 0.02 5.66 -1 6 C-0.67 4.02 -0.34 2.04 0 0 Z " fill="#F13D4A" transform="translate(1067,1091)"/>
<path d="M0 0 C0.66 0.33 1.32 0.66 2 1 C1.67 3.64 1.34 6.28 1 9 C0.67 9 0.34 9 0 9 C-0.309375 8.05125 -0.61875 7.1025 -0.9375 6.125 C-1.87394742 3.13919592 -1.87394742 3.13919592 -3 1 C-2.01 0.67 -1.02 0.34 0 0 Z " fill="#FAEEEB" transform="translate(798,385)"/>
<path d="M0 0 C3.40667322 0.44824648 5.07914607 1.05276405 8 3 C7.67 3.66 7.34 4.32 7 5 C4.33333333 3.66666667 1.66666667 2.33333333 -1 1 C-0.67 0.67 -0.34 0.34 0 0 Z " fill="#68696A" transform="translate(927,195)"/>
</svg>
